<svg version="1.1" id="Layer_1" xmlns="http://www.w3.org/2000/svg" xmlns:xlink="http://www.w3.org/1999/xlink" x="0px" y="0px"
	 width="100%" viewBox="0 0 1024 672" enable-background="new 0 0 1024 672" xml:space="preserve">
<path fill="#000000" opacity="1.000000" stroke="none" 
	d="
M896.466797,673.000000 
	C898.950989,658.669006 902.104004,644.375977 904.807983,629.998535 
	C909.393250,605.618347 916.882019,581.908569 920.942261,557.390442 
	C926.215332,525.548828 931.908203,493.768219 938.027527,462.078583 
	C941.216003,445.566284 944.273071,429.054108 946.510925,412.393402 
	C948.062378,400.843414 949.295532,389.313232 947.960999,377.580200 
	C946.136475,361.539215 947.377625,345.281799 944.872803,329.260925 
	C944.024658,323.835938 943.278381,318.381866 942.810547,312.913269 
	C941.697083,299.897247 942.995239,286.792480 939.911011,273.804321 
	C935.771301,256.371155 934.954895,238.168915 927.832153,221.411835 
	C925.161316,215.128235 922.382751,208.890381 919.714417,202.605743 
	C918.919067,200.732513 917.926514,199.698730 915.616028,199.854996 
	C899.835693,200.922470 884.038086,201.742584 868.262329,202.869110 
	C852.247559,204.012695 836.284973,202.536148 820.322998,201.962265 
	C800.033752,201.232788 779.754089,199.768600 759.882446,195.054016 
	C747.492065,192.114380 735.756714,187.413696 724.389343,181.775833 
	C721.622803,180.403717 719.343994,180.402313 716.400513,181.556168 
	C693.933655,190.363235 671.787964,200.047699 648.276306,206.002930 
	C629.311218,210.806580 609.955566,212.892334 590.605347,215.114166 
	C582.151917,216.084808 582.148987,216.025421 581.084045,224.466415 
	C578.807861,242.508820 572.608093,259.727264 569.911438,277.682587 
	C566.680847,299.192535 566.193298,320.799835 568.053223,342.433411 
	C568.594421,348.729187 567.588135,355.085419 569.179016,361.335358 
	C569.825745,363.875916 570.715332,365.878601 572.945190,367.474884 
	C582.325256,374.189667 591.101990,381.702545 601.786194,386.576233 
	C607.016846,388.962189 606.620178,395.064667 607.200317,399.837646 
	C609.050964,415.061401 606.090454,429.444427 599.353577,443.286835 
	C591.322815,459.787872 578.573059,472.180786 565.300415,484.208740 
	C563.175659,486.134277 560.528015,487.254700 557.561401,487.313690 
	C555.837769,487.347961 554.282593,487.951172 552.847778,488.807495 
	C548.752808,491.251587 548.423584,493.610077 552.333618,496.291870 
	C559.338562,501.096375 565.280518,507.313965 572.785767,511.441315 
	C574.374268,512.314819 575.995178,513.396851 577.140076,514.767883 
	C587.524658,527.204224 602.186829,534.513855 613.790222,545.481384 
	C616.954224,548.472046 620.536560,550.912659 624.712402,552.361511 
	C625.337463,552.578369 625.984558,552.837463 626.506958,553.229431 
	C639.621033,563.068054 654.037292,571.315125 664.599487,584.276733 
	C666.196777,586.236816 667.938660,587.931580 670.198669,589.158569 
	C671.792969,590.024109 673.606445,590.987549 674.580139,592.413757 
	C681.315613,602.279114 691.116028,609.681946 696.887695,620.300598 
	C699.037109,624.254944 701.166931,628.204956 704.793579,631.109253 
	C705.807922,631.921631 706.795654,633.029358 707.271118,634.212341 
	C712.382385,646.930603 721.590271,657.953796 723.014893,672.594727 
	C704.645752,673.000000 686.291565,673.000000 667.468689,673.000000 
	C666.373352,671.638550 665.747253,670.276917 665.119873,668.915833 
	C662.420715,663.060181 660.408997,656.768616 654.454651,653.059082 
	C653.369690,652.383118 652.497925,651.211609 651.794250,650.100037 
	C640.173950,631.742798 624.314026,616.783203 611.195618,599.602722 
	C605.947266,592.729248 597.799622,588.152344 591.781372,581.766907 
	C579.402405,568.632690 563.300354,560.447327 549.683228,549.038025 
	C535.789490,537.397156 521.870728,525.727417 509.492004,512.415222 
	C505.924347,508.578461 501.827240,507.302002 496.628418,507.147278 
	C473.501221,506.458954 450.584076,504.358795 428.159241,497.866364 
	C411.860809,493.147705 395.864258,487.575745 379.949219,481.827606 
	C370.794952,478.521301 361.814117,474.294617 353.647064,468.760162 
	C347.842743,464.826904 344.367828,458.840240 341.123260,452.927338 
	C333.301849,438.673706 331.610840,423.011749 331.801910,407.091370 
	C331.902130,398.744019 331.628479,390.382721 329.462585,382.389801 
	C327.782257,376.188873 324.726898,370.324707 321.971252,364.457184 
	C310.922424,340.931671 306.595551,315.772827 302.580200,290.342834 
	C300.059204,274.377197 302.388031,259.415924 305.525696,243.992828 
	C309.402008,224.939133 311.261566,205.534927 312.090179,186.063828 
	C312.301819,181.090179 312.701538,176.145645 311.685547,171.232162 
	C310.880585,167.339142 308.648956,165.477982 304.444275,165.069901 
	C268.152374,161.547653 231.850250,158.092896 195.611649,154.073029 
	C174.274841,151.706192 153.031784,148.555145 131.619141,146.741791 
	C119.278976,145.696747 119.339272,145.262527 118.354027,157.663177 
	C116.799942,177.223389 111.663910,195.872452 101.289513,212.487701 
	C89.626282,231.167099 76.062164,248.498367 58.851685,262.606628 
	C57.042126,264.090027 55.411987,265.514526 55.051052,268.168457 
	C52.233688,288.884491 45.280827,308.605988 40.173611,328.767853 
	C34.958359,349.356201 33.395485,370.096222 35.485638,391.160797 
	C36.652920,402.924744 36.331738,414.760284 37.818451,426.531677 
	C41.188057,453.211212 49.808235,477.471619 66.859154,498.769440 
	C80.590225,515.920532 91.531334,535.208740 105.651459,552.086060 
	C117.960732,566.798828 128.902466,582.521973 140.746704,597.559509 
	C149.642197,608.853271 160.685028,618.144470 172.033295,626.904907 
	C189.531036,640.412354 204.750458,656.234436 219.804901,672.731445 
	C207.645767,673.000000 195.291550,673.000000 182.319244,672.701172 
	C174.230118,662.790894 166.115280,653.766907 157.470779,645.186340 
	C139.622009,627.469543 121.065063,610.329529 106.379631,589.766907 
	C84.890388,559.677734 64.113586,529.079712 42.617573,498.995453 
	C32.286118,484.536316 22.749182,469.790466 17.565006,452.645081 
	C16.109331,447.830872 14.790555,442.954651 11.390845,439.150635 
	C3.520530,430.344177 0.009776,420.271301 1.709359,408.484039 
	C1.874325,407.339935 1.685205,406.148926 1.778986,404.989258 
	C1.866413,403.908112 1.543256,402.557922 3.400514,402.113892 
	C6.554583,404.464233 7.121954,408.840759 10.695601,412.633179 
	C10.695601,403.783386 11.283393,396.005707 10.586111,388.345001 
	C8.438454,364.749817 11.976812,341.815399 18.015976,319.179901 
	C21.876871,304.708771 26.516253,290.447052 30.598907,276.032593 
	C32.229187,270.276642 33.017731,264.510803 30.785339,258.474457 
	C28.142176,251.327454 29.732264,244.750397 35.187122,239.167404 
	C39.152672,235.108704 42.466042,230.494003 45.579731,225.763641 
	C59.176937,205.106567 68.147507,183.108597 64.761093,157.681427 
	C63.970703,151.746735 62.309753,145.891678 61.967865,139.947144 
	C61.762161,136.370422 58.016464,132.172226 61.650810,129.327148 
	C64.758652,126.894234 69.386070,127.970184 73.361298,128.125214 
	C96.158798,129.014328 118.955612,129.929535 141.747742,130.945953 
	C164.034561,131.939835 186.242371,134.319443 208.558487,134.828186 
	C218.542389,135.055801 228.526093,135.456940 238.510315,135.471283 
	C257.820587,135.498993 277.113770,137.502228 296.433929,135.973877 
	C298.186737,135.835220 300.419250,136.476883 301.386414,134.473785 
	C302.318268,132.543808 300.679413,131.056656 299.685852,129.558624 
	C292.268707,118.375511 283.003571,108.826439 273.345581,99.603615 
	C264.679352,91.327873 255.444458,83.580566 248.170517,73.959610 
	C239.902985,63.024445 240.801926,52.858307 250.169693,43.043827 
	C261.129852,31.560999 274.531433,23.493473 287.884888,15.324209 
	C296.108643,10.293148 305.016998,6.457035 313.000000,1.000000 
	C324.687561,1.000000 336.375122,1.000000 348.306763,1.253465 
	C336.271027,9.228079 324.356842,17.428436 313.618408,27.258520 
	C301.533936,38.320805 297.573456,52.293205 303.161224,66.460678 
	C304.918915,70.917168 307.578003,75.035599 309.992615,79.211563 
	C313.863068,85.905296 316.582916,92.838539 317.553864,100.676933 
	C318.541656,108.651665 318.893585,116.890358 323.076996,124.235825 
	C324.901794,127.439903 325.436310,131.184738 325.282043,134.899460 
	C324.646423,150.203827 325.301239,165.467590 326.070129,180.758316 
	C327.281189,204.843140 323.112671,228.515335 319.682251,252.231400 
	C318.756561,258.631195 316.282898,264.951111 317.700226,272.051666 
	C320.193268,270.285919 322.401886,269.053955 324.203918,267.383392 
	C329.736481,262.254364 335.609894,257.802765 336.623840,249.016541 
	C338.376740,233.826553 340.454407,218.622955 343.897095,203.677109 
	C346.845703,190.876053 347.048920,177.530884 351.638855,165.052689 
	C353.082794,161.127213 355.312378,158.070007 359.209320,156.219345 
	C362.734924,154.545029 365.096466,155.460724 366.232819,159.041412 
	C370.609741,172.833786 376.330627,186.134689 380.425079,200.060165 
	C385.776703,218.261353 387.713257,236.323502 384.585022,255.200943 
	C381.265656,275.231720 381.417084,295.614532 381.512909,315.861542 
	C381.588348,331.805817 383.244965,347.740509 384.096985,363.684906 
	C384.265076,366.830444 384.270386,370.045227 383.817535,373.150269 
	C382.991394,378.814636 378.713135,381.259674 373.632538,378.799530 
	C370.403717,377.236084 367.336884,375.235168 364.983368,372.246857 
	C360.116638,366.067444 355.966034,359.435303 352.295227,352.524017 
	C344.386871,337.634369 337.223236,322.442139 334.598419,305.536743 
	C334.285675,303.522461 334.398865,301.142975 331.781403,299.538940 
	C329.893921,300.871094 328.074280,302.809845 325.847626,303.596283 
	C320.546722,305.468506 320.503052,309.241180 321.582672,313.561096 
	C325.584778,329.575256 329.519440,345.746246 337.912537,360.070465 
	C343.714386,369.972229 346.682831,379.865814 346.822174,391.425751 
	C346.916016,399.209625 348.595428,407.233521 349.986420,415.039978 
	C351.836456,425.423218 355.793060,435.331573 360.156555,444.937347 
	C362.077637,449.166473 364.333527,453.885864 369.014252,455.731079 
	C376.589783,458.717438 384.397369,461.128052 392.158020,463.622833 
	C394.055756,464.232880 396.123322,465.412994 398.762054,463.698608 
	C396.374573,459.008270 394.047241,454.452759 391.737305,449.888458 
	C390.990906,448.413635 389.970703,446.930298 391.345581,445.281128 
	C392.493530,443.904114 393.930756,444.251160 395.473083,444.469086 
	C409.630463,446.469360 422.432190,453.290039 436.500977,455.763977 
	C449.433777,458.038116 456.775848,469.053986 466.374878,476.492340 
	C473.231628,481.805725 479.501312,488.086487 489.112335,487.845367 
	C491.749237,487.779175 494.456055,488.137146 496.320221,485.904907 
	C496.590881,484.364349 495.892853,483.337372 495.006897,482.628540 
	C489.308838,478.069366 485.678101,471.262054 478.851044,467.912323 
	C476.787781,466.899933 475.452698,465.107391 475.988647,462.610321 
	C476.406952,460.661560 478.053497,460.132996 479.789459,459.948120 
	C487.986481,459.075256 495.087128,454.956268 502.471405,451.870880 
	C505.256989,450.706970 508.689087,450.101807 510.753754,446.797241 
	C514.472290,440.845703 526.293640,441.153137 529.461121,447.505249 
	C532.505432,453.610474 537.796326,457.365540 542.067444,462.179047 
	C543.493225,463.785858 545.077271,464.100891 546.840271,462.541260 
	C551.413940,458.495392 556.025330,454.492065 560.906555,450.222565 
	C555.635315,443.061066 549.107910,438.029449 542.069824,433.701019 
	C539.190125,431.930023 537.879395,429.696472 538.568848,426.729553 
	C539.847717,421.226074 542.041016,415.995483 545.136230,411.248291 
	C548.087158,406.722321 551.019958,406.008362 555.667908,408.657745 
	C560.558960,411.445709 565.273438,414.534790 569.132385,418.728455 
	C571.188354,420.962738 573.547363,422.648987 577.272766,423.393372 
	C578.758911,417.167206 580.320801,411.111298 581.601929,404.996582 
	C582.061218,402.804413 580.389587,400.978241 578.787964,400.000244 
	C570.724365,395.076538 563.106018,389.282928 554.153076,386.002136 
	C547.972412,383.737274 546.204407,381.763245 546.877686,375.115723 
	C547.487122,369.098358 546.891174,363.131683 546.604553,357.156494 
	C546.291870,350.638580 546.726196,343.551758 538.180115,341.331848 
	C537.893860,341.257477 537.704712,340.866089 537.428467,340.687225 
	C531.598145,336.911682 525.761719,333.145477 519.969910,329.405457 
	C517.833862,331.075470 517.760742,333.249847 516.817383,334.945343 
	C510.323029,346.617523 509.714203,360.824890 499.948639,371.261475 
	C492.385101,379.344757 482.175812,379.920197 475.265198,371.319611 
	C470.594238,365.506378 468.985229,358.477295 466.886536,351.707886 
	C462.955780,339.029205 461.452118,325.844330 459.258942,312.776855 
	C456.493134,296.297577 457.852753,280.367554 461.840210,264.453217 
	C463.136871,259.277985 465.084686,254.056503 468.875214,250.257660 
	C483.324554,235.776733 498.048767,221.569916 512.684265,207.275009 
	C515.168945,204.848114 517.473145,205.047852 520.049927,207.458511 
	C523.881226,211.042816 524.363037,215.587540 524.234375,220.309219 
	C523.635986,242.269501 522.694031,264.223755 522.380310,286.187378 
	C522.135620,303.317261 520.395630,298.060394 533.756104,307.596008 
	C536.580750,309.612030 539.124023,312.637329 543.081909,312.410736 
	C544.759033,310.335022 544.409912,308.074341 544.550110,305.962616 
	C545.045715,298.494904 544.238892,290.975433 545.702026,283.536957 
	C551.160583,255.787415 555.930908,227.975525 557.133850,199.602646 
	C557.710571,186.000732 560.291626,172.561066 567.971680,160.718216 
	C573.159790,152.717987 576.845154,143.961716 580.286255,135.115082 
	C582.769897,128.729767 585.947021,122.711327 589.401245,116.822769 
	C596.580872,104.583435 605.530029,93.585152 613.965820,82.244934 
	C623.196167,69.836586 632.029480,57.107174 642.658691,45.769455 
	C656.551025,30.951193 670.229492,15.932479 684.000000,1.000001 
	C692.354248,1.000000 700.708496,1.000000 709.357849,1.285958 
	C708.516174,2.782469 707.472839,4.099877 706.228638,5.187465 
	C689.248474,20.029850 674.940430,37.448559 659.565308,53.825520 
	C650.831726,63.128113 643.699341,73.846382 635.679260,83.777573 
	C612.591370,112.367172 595.135742,144.230072 579.884705,177.439484 
	C577.617004,182.377319 578.209778,183.235306 583.914429,183.758316 
	C599.578308,185.194412 615.259216,184.517487 630.757507,182.436432 
	C655.746277,179.081070 679.855469,171.872971 703.638733,163.665283 
	C712.919861,160.462341 721.984741,156.637695 731.197937,153.231003 
	C735.004517,151.823486 738.729187,151.281082 742.699097,153.577118 
	C762.747070,165.172058 784.537170,171.261993 807.448059,173.953445 
	C822.342163,175.703110 837.291016,176.582077 852.233032,177.605026 
	C864.858459,178.469376 877.470215,179.188828 890.167542,178.229431 
	C901.950012,177.339157 913.794189,177.169525 925.616211,176.935593 
	C932.707703,176.795273 934.989929,179.128586 935.043152,186.053101 
	C935.065796,189.000473 935.937744,191.679382 937.136353,194.214096 
	C946.575256,214.174240 950.964111,235.488632 954.368103,257.102844 
	C955.204102,262.411438 956.721191,267.612793 957.971802,273.066925 
	C960.468750,271.930847 961.131287,270.155151 962.095398,268.654724 
	C975.154297,248.330765 988.643066,228.301666 1003.756653,209.432495 
	C1010.502625,201.010117 1016.698547,192.080994 1025.000000,185.000000 
	C1025.000000,191.021149 1025.000000,197.042297 1024.764404,203.769989 
	C1020.013000,209.660553 1015.460083,214.841064 1011.049133,220.083038 
	C994.838623,239.347656 980.735046,260.180725 967.260620,281.434875 
	C965.234680,284.630554 964.128601,287.985352 964.563171,291.832794 
	C966.040588,304.910309 966.694885,318.048248 967.220886,331.189728 
	C968.367126,359.829346 969.293335,388.415741 963.219421,416.778870 
	C959.799805,432.747345 957.547058,448.965668 954.768677,465.071442 
	C959.236694,452.533081 963.603210,439.974457 967.651367,427.314056 
	C971.132385,416.427368 976.019287,405.883484 976.107178,394.103027 
	C976.123474,391.911133 977.279724,389.831360 978.696533,388.231171 
	C984.515137,381.659241 985.644470,373.273010 987.683716,365.291382 
	C991.438904,350.593811 992.631165,335.448517 995.029724,320.513092 
	C996.849976,309.178864 998.505310,297.827393 997.934509,286.253784 
	C997.016052,267.631622 997.107666,267.613800 1009.812317,253.675629 
	C1010.976440,252.398544 1011.900940,250.277115 1014.134338,250.889511 
	C1016.212341,251.459320 1016.522339,253.626801 1016.890259,255.334808 
	C1019.054993,265.384796 1018.944885,275.599457 1017.511536,285.645996 
	C1015.304932,301.112122 1012.174011,316.443787 1009.696594,331.874451 
	C1006.991882,348.720551 1001.766541,364.820923 996.284241,380.911438 
	C986.788086,408.782257 977.925781,436.872894 967.648987,464.472198 
	C959.110535,487.402893 949.623962,509.996643 943.267883,533.689026 
	C934.810791,565.213074 928.313538,597.194885 921.329712,629.057739 
	C918.124573,643.681030 914.114624,658.143005 912.000000,673.000000 
	C906.977905,673.000000 901.955811,673.000000 896.466797,673.000000 
z"/>
<path fill="#000000" opacity="1.000000" stroke="none" 
	d="
M548.531433,0.999999 
	C542.540527,8.356666 536.131836,15.758601 529.612122,23.061481 
	C510.490326,44.480122 495.219788,68.472885 483.160858,94.409622 
	C473.347809,115.515884 461.940430,135.922485 455.019806,158.346771 
	C444.645660,191.961304 436.720490,226.148376 430.601654,260.752319 
	C428.244537,274.082489 428.830902,287.656464 429.315887,301.141602 
	C430.016479,320.619781 431.358490,340.011139 436.959198,358.877106 
	C438.711273,364.779144 443.063049,368.908752 446.926086,372.716522 
	C463.506500,389.059845 480.321655,405.228241 499.125824,419.102051 
	C503.952728,422.663361 503.606293,427.777740 497.964142,431.420959 
	C495.731506,432.862610 493.439270,434.152924 491.459198,435.967987 
	C486.759674,440.275787 479.653809,441.024017 474.081512,437.842712 
	C471.808411,436.544922 469.653809,435.001038 467.125031,434.607910 
	C465.546448,436.525879 466.663055,438.095886 467.022339,439.632050 
	C467.805054,442.979034 466.659393,445.602173 463.344849,446.069580 
	C453.703339,447.429169 443.875214,449.483307 435.194672,442.574341 
	C432.269135,440.245850 430.219208,437.710114 431.379333,433.629181 
	C432.259827,430.532074 429.507843,428.444275 428.909546,425.712067 
	C426.723602,415.729889 422.884705,406.239990 420.051056,396.450104 
	C419.087860,393.122345 418.878265,389.556183 417.742859,386.301849 
	C410.703461,366.124908 407.125732,345.470306 407.680725,324.025269 
	C408.167114,305.231232 406.956055,286.397797 409.675751,267.666534 
	C411.521576,254.954041 414.894897,242.591309 417.652130,230.085678 
	C426.564819,189.661179 438.955841,150.365250 455.705566,112.478020 
	C467.522980,85.747520 482.146881,60.569206 497.952820,36.042389 
	C505.220428,24.764917 515.055481,15.652998 523.634216,5.481610 
	C524.701172,4.216514 525.729248,2.918532 526.887695,1.317900 
	C534.020935,1.000000 541.041931,1.000000 548.531433,0.999999 
z"/>
<path fill="#000000" opacity="1.000000" stroke="none" 
	d="
M417.468658,673.000000 
	C415.344940,669.801270 411.973572,668.673340 409.218048,667.011414 
	C390.463043,655.699951 373.292755,642.404358 356.793732,627.983643 
	C340.728668,613.942200 322.535797,602.636047 304.359833,591.459595 
	C281.070648,577.139160 259.797180,560.471741 242.703537,538.885376 
	C240.331665,535.890076 237.338486,533.369324 240.429794,528.875244 
	C241.705246,527.020996 240.256195,524.485474 239.440308,522.235107 
	C236.301590,513.577942 230.581451,506.386810 226.087112,498.526031 
	C220.874496,489.409027 217.815552,479.531403 214.046539,469.891449 
	C212.171188,465.094849 210.707825,460.132355 208.729477,455.381744 
	C204.147339,444.378510 203.194427,432.801544 203.097260,421.105469 
	C203.034348,413.531464 202.176300,406.180145 199.365555,399.075439 
	C198.525421,396.951752 198.060593,394.558899 197.998505,392.273743 
	C197.877213,387.811005 200.756058,385.283081 205.039154,386.237579 
	C211.681610,387.717865 218.273453,389.458893 224.820709,391.321472 
	C229.437988,392.635040 230.861069,396.829834 232.168472,400.773468 
	C234.219040,406.958862 235.336182,413.349823 235.624237,419.885895 
	C236.166245,432.184052 240.193497,443.624847 244.187790,455.109039 
	C246.501480,461.761261 247.539093,468.732361 248.775085,475.699921 
	C250.635803,486.189209 252.140762,497.216919 258.987549,506.132324 
	C262.480377,510.680481 263.197968,516.247986 265.123993,521.331970 
	C268.019775,528.975830 273.347778,534.481750 279.062134,539.821045 
	C298.007782,557.523315 318.943726,572.431335 341.420563,585.378540 
	C362.634247,597.598083 382.563629,611.783325 402.387787,626.189880 
	C425.270294,642.819031 449.207703,657.988098 473.750061,672.768188 
	C455.312439,673.000000 436.624878,673.000000 417.468658,673.000000 
z"/>
<path fill="#000000" opacity="1.000000" stroke="none" 
	d="
M816.468262,673.000000 
	C818.195374,651.520630 818.933533,629.889587 822.549683,608.559082 
	C828.116272,575.723938 828.822815,542.669373 827.220825,509.501465 
	C826.683350,498.372955 827.379028,487.148773 825.071106,476.153778 
	C821.544189,459.351440 813.723145,444.239044 806.253296,428.987640 
	C802.670654,421.672791 798.460754,414.653046 795.683533,406.954468 
	C794.814270,404.544739 793.559570,402.767670 790.636475,403.190796 
	C776.669861,405.212524 763.283386,400.513702 749.562500,399.607635 
	C739.440918,398.939240 729.597717,396.460815 719.771545,393.962799 
	C712.612854,392.142944 709.600830,389.102753 708.782166,381.749908 
	C708.377075,378.111938 708.147888,374.439636 707.480774,370.849457 
	C706.718750,366.748169 707.014221,363.100952 710.945679,360.847168 
	C715.369507,358.311096 720.439514,357.703796 723.834778,361.740723 
	C728.531738,367.325195 735.158752,368.001312 741.155762,369.669861 
	C762.514160,375.612305 784.378357,377.147522 806.502197,375.689514 
	C814.180359,375.183502 815.926086,377.599274 817.245056,385.419403 
	C818.837463,394.860626 823.631042,403.243500 827.724548,411.770844 
	C836.701172,430.470459 844.314941,449.625763 846.888367,470.339966 
	C849.152832,488.566895 848.222351,506.929565 848.105713,525.243835 
	C847.891296,558.921997 844.323792,592.245605 838.245911,625.372864 
	C835.423462,640.756287 836.026611,656.517456 834.999146,672.551086 
	C828.978821,673.000000 822.957703,673.000000 816.468262,673.000000 
z"/>
<path fill="#000000" opacity="1.000000" stroke="none" 
	d="
M933.468628,673.000000 
	C934.512024,655.406067 937.861450,638.094055 941.083130,620.766479 
	C945.432373,597.375000 948.774475,573.840820 951.869263,550.252136 
	C954.659485,528.984131 958.708496,507.902374 963.414978,486.965179 
	C963.952209,484.575134 964.683899,482.152008 966.242493,480.087036 
	C973.659424,470.260132 987.112549,471.758606 992.969482,482.742889 
	C995.905640,488.249329 996.115662,493.532318 995.249634,499.552002 
	C991.367432,526.536987 986.066772,553.291504 982.900269,580.405396 
	C980.898132,597.549500 976.721680,614.428711 974.002136,631.503540 
	C971.858948,644.959656 969.375000,658.402710 969.003418,672.544678 
	C957.312439,673.000000 945.624878,673.000000 933.468628,673.000000 
z"/>
<path fill="#000000" opacity="1.000000" stroke="none" 
	d="
M151.468658,673.000000 
	C140.812820,665.815613 130.100082,659.461487 119.426491,653.047974 
	C105.144379,644.466309 92.290230,633.990173 79.260277,623.668884 
	C70.273109,616.549988 61.130718,609.614868 52.617638,601.949951 
	C38.171406,588.942871 26.840872,573.284546 15.759203,557.445190 
	C12.136895,552.267761 8.630695,546.976318 4.038786,542.557678 
	C2.767642,541.334473 2.013722,539.825439 1.925341,538.151001 
	C1.436736,528.894409 1.539620,519.663086 3.478322,510.022278 
	C5.868419,511.747040 6.332623,513.820679 5.661779,515.907471 
	C4.667964,518.998901 5.585119,521.320923 7.497337,523.707397 
	C24.036692,544.349182 40.927261,564.704956 58.495770,584.470581 
	C68.727371,595.981750 82.059540,603.886658 94.134552,613.248352 
	C118.484291,632.126648 144.562469,648.479736 170.119812,665.597534 
	C173.147507,667.625427 175.870605,670.108093 178.867432,672.690002 
	C169.979111,673.000000 160.958206,673.000000 151.468658,673.000000 
z"/>
<path fill="#000000" opacity="1.000000" stroke="none" 
	d="
M1017.494751,673.000000 
	C1019.480652,664.494934 1021.961365,655.989807 1024.720947,647.242371 
	C1025.000000,655.666809 1025.000000,664.333557 1025.000000,673.000000 
	C1022.587952,673.000000 1020.288757,673.000000 1017.494751,673.000000 
z"/>
<path fill="#000000" opacity="1.000000" stroke="none" 
	d="
M1.000000,672.500000 
	C3.071527,668.521118 0.294164,664.155029 3.257895,660.149231 
	C6.607199,663.989685 8.683439,668.170532 10.887676,672.670410 
	C7.666667,673.000000 4.333333,673.000000 1.000000,672.500000 
z"/>
<path fill="#000000" opacity="1.000000" stroke="none" 
	d="
M866.203003,598.320923 
	C869.691650,580.772400 872.882996,563.608765 874.910400,546.252930 
	C875.336060,542.609436 875.818604,538.981995 877.021667,535.505737 
	C877.683655,533.592957 878.536011,531.564453 880.998718,531.662415 
	C883.257690,531.752258 883.739929,533.791138 884.341553,535.515015 
	C887.443848,544.403870 887.910522,553.753357 889.130493,562.972778 
	C891.776672,582.969971 888.004700,602.796936 887.478210,622.709412 
	C887.290649,629.805481 887.533264,636.948669 885.635315,644.022156 
	C884.105835,649.722168 880.585083,654.510559 879.245972,660.211365 
	C879.016846,661.187012 878.342590,662.081116 877.212891,662.154114 
	C875.747864,662.248718 875.178833,661.094360 874.902466,659.958740 
	C874.471985,658.189880 874.205688,656.376892 873.945312,654.571716 
	C873.543823,651.788513 872.524658,649.372498 869.783691,648.206421 
	C866.570801,646.839417 865.274414,644.133240 865.227783,641.048279 
	C865.014771,626.938904 863.590759,612.794495 866.203003,598.320923 
z"/>
<path fill="#000000" opacity="1.000000" stroke="none" 
	d="
M637.061279,386.306824 
	C637.781067,381.701080 640.499207,379.776886 644.465149,378.892883 
	C652.033203,377.205963 659.338745,378.037292 666.461121,380.831543 
	C675.610046,384.420807 679.103760,393.692047 674.631104,403.059052 
	C672.057861,408.448090 668.206238,412.726135 662.135681,414.455139 
	C660.220520,415.000641 658.343994,415.693237 656.474365,416.384949 
	C649.028137,419.139984 646.463806,418.228760 643.409058,410.723846 
	C640.274170,403.021729 638.217590,394.966736 637.061279,386.306824 
z"/>
<path fill="#000000" opacity="1.000000" stroke="none" 
	d="
M775.691772,553.231506 
	C765.162415,549.390503 763.222961,539.586853 759.560059,531.237610 
	C757.972351,527.618591 760.373718,524.728943 765.125000,524.379700 
	C774.109985,523.719238 782.194031,526.646790 787.790100,533.642944 
	C792.830627,539.944519 795.686096,547.528015 794.886597,555.960449 
	C794.598816,558.995667 794.101257,562.222778 790.918091,563.480347 
	C787.700928,564.751404 785.180603,562.744629 782.984558,560.557068 
	C780.627563,558.209167 778.309021,555.822693 775.691772,553.231506 
z"/>
<path fill="#000000" opacity="1.000000" stroke="none" 
	d="
M629.577026,472.456726 
	C624.371887,470.402222 620.670105,466.733826 616.467468,463.836182 
	C614.414368,462.420593 613.468994,460.251099 614.531921,457.712677 
	C615.517700,455.358368 617.384155,454.135376 619.920959,453.915802 
	C623.732788,453.585876 627.280457,454.547150 630.212097,456.879242 
	C634.901733,460.609802 637.959473,465.862518 641.962891,470.251984 
	C642.967407,471.353302 643.128113,473.044617 642.203857,474.459930 
	C641.122070,476.116577 639.327515,476.253418 637.747498,475.747833 
	C635.077820,474.893585 632.527405,473.666626 629.577026,472.456726 
z"/>
</svg>