<?xml version="1.0" encoding="UTF-8"?>
<svg id="Capa_1" data-name="Capa 1" xmlns="http://www.w3.org/2000/svg" viewBox="0 0 192.94 139.13">
  <defs>
    <style>
      .cls-1 {
        fill: #fff;
      }
    </style>
  </defs>
  <path d="M185.53,83.45c0,.69,0,1.2,0,1.71,0,7.29,0,14.58,0,21.87,0,2.23-1.01,3.72-2.77,4.17-2.44,.62-4.66-1.12-4.69-3.76-.04-3.47-.01-6.94-.01-10.4,0-4.06,0-8.12,0-12.18,0-.42,0-.84,0-1.34h-7.27v48.13h7.2c.02-.41,.07-.83,.07-1.24,0-2.56-.01-5.12,0-7.68,.02-2.37,1.57-4,3.75-3.99,2.16,0,3.7,1.66,3.71,4.04,.02,4.1,.02,8.2,0,12.29,0,2.56-1.49,4.06-4.02,4.07-4.77,.01-9.54,.01-14.3,0-2.46,0-3.94-1.51-3.97-4-.01-1.06,0-2.12,0-3.29H29.71c0,1.03,0,2.08,0,3.12,0,2.72-1.44,4.17-4.15,4.18-4.65,0-9.3,0-13.95,0-2.77,0-4.2-1.46-4.2-4.26,0-16.59,0-33.18,0-49.77,0-.5,0-1,0-1.66-1.22,0-2.31,.01-3.4,0-2.48-.04-3.99-1.52-4-3.99-.01-9.69-.01-19.39,0-29.08,0-2.63,1.48-4.07,4.13-4.08,3.15-.01,6.31-.03,9.46,.02,.95,.02,1.35-.22,1.29-1.24-.08-1.3-.02-2.6-.02-3.9,.01-5.22,2.89-9.24,7.81-10.92,.26-.09,.51-.18,.89-.31-.32-2.72-.51-5.47-.98-8.17-.44-2.52-.13-4.75,1.12-7.03,2.16-3.93,4.09-7.99,6.03-12.04C30.65,.78,32.03,0,34.13,0c41.57,.03,83.15,.03,124.72,0,2.06,0,3.42,.77,4.32,2.62,2.26,4.64,4.63,9.22,6.85,13.88,.43,.9,.6,2.05,.52,3.06-.26,3.18-.67,6.35-1.08,9.51-.09,.7,.13,.94,.76,1.17,5.21,1.86,7.86,5.67,7.86,11.23,0,1.53,0,3.06,0,4.72,.49,.03,.91,.09,1.32,.09,3.11,0,6.23,0,9.34,0,2.71,0,4.19,1.45,4.19,4.14,.01,9.65,.01,19.31,0,28.96,0,2.52-1.54,4.04-4.06,4.06-1.06,.01-2.11,0-3.35,0ZM103.89,46.18h51.92c0-1.7,0-3.31,0-4.92,0-4.23,1.74-7.52,5.26-9.87,.27-.18,.63-.46,.67-.74,.37-2.72,.68-5.45,1.01-8.25H30.18c.34,2.81,.65,5.51,1.01,8.19,.03,.25,.3,.54,.54,.69,3.86,2.5,5.55,6.08,5.41,10.62-.05,1.41,0,2.81,0,4.18,.25,.08,.36,.15,.47,.15,4.53,.01,9.06,0,13.59,.03,.65,0,.78-.32,.77-.88-.02-1.34,0-2.68,0-4.02,.01-2.8,1.41-4.22,4.21-4.23,3.39-.01,6.78-.03,10.17,.02,.8,.01,1.16-.26,1.5-.96,2.06-4.22,5.51-6.49,10.17-6.45,4.62,.03,8,2.33,10.01,6.52,.32,.68,.69,.9,1.42,.89,3.43-.04,6.86-.02,10.28-.01,2.72,.01,4.14,1.44,4.16,4.17,0,1.61,0,3.21,0,4.86Zm-59.28,40.96c.07,.04,.15,.07,.22,.11,1.15-1.73,2.35-3.43,3.44-5.2,1.02-1.65,2.42-2.32,4.34-2.29,4.53,.06,9.06,.02,13.59,.02,24.23,0,48.47,0,72.7-.02,1.89,0,3.24,.69,4.22,2.29,.78,1.28,1.64,2.51,2.47,3.75,.84,1.26,1.69,2.53,2.72,4.07V53.77h-44.42c0,.52,0,.99,0,1.45-.02,2.8-1.42,4.21-4.23,4.22-3.15,.01-6.32,.17-9.45-.05-2.42-.17-4.05,.68-5.75,2.36-1.96,1.94-3.24,3.79-2.9,6.72,.24,2.07-1.62,3.67-3.64,3.67-2.03,0-3.62-1.56-3.71-3.68-.04-.94,.06-1.9-.04-2.83-.06-.53-.27-1.15-.62-1.53-1.25-1.36-2.56-2.68-3.93-3.92-.44-.4-1.15-.68-1.73-.69-3.98-.06-7.96-.02-11.94-.04-2.52-.01-3.96-1.48-3.99-3.97,0-.54,0-1.08,0-1.68h-7.36v33.35Zm111.23-3.64c0,.55,0,.98,0,1.41,0,4.89,0,9.77,0,14.66,0,2.86-1.43,4.29-4.28,4.29-36.76,0-73.53,0-110.29,0-2.68,0-4.14-1.47-4.15-4.18-.01-4.96,0-9.93,0-14.89,0-.42,0-.83,0-1.28h-7.31v40.65H163.15v-40.65h-7.31ZM32.05,14.78H160.89c-1.01-2.03-2.03-3.89-2.87-5.82-.51-1.18-1.15-1.57-2.46-1.56-39.04,.04-78.07,.03-117.11,.03-.67,0-1.34-.04-2.01,.02-.31,.03-.76,.16-.88,.38-1.18,2.25-2.3,4.54-3.51,6.95Zm4.95,61.13v-22.1H7.54v22.1h29.47Zm148.41-22.12h-29.48v22.09h29.48v-22.09ZM14.96,83.5v48.13h7.2v-48.13h-7.2Zm62.95-25.49c1.23-1.28,2.32-2.36,3.34-3.5,.25-.28,.35-.78,.35-1.18,.02-4.09,.03-8.19,0-12.28-.01-2.23-1.54-3.84-3.6-3.88-2.12-.04-3.75,1.57-3.76,3.84-.03,4.13-.02,8.27,0,12.4,0,.39,.15,.87,.4,1.16,.99,1.12,2.05,2.17,3.26,3.44Zm-18.46-13.39v7.3h7.23v-7.3h-7.23Zm29.7,7.31h7.23v-7.29h-7.23v7.29Zm-66.8-7.47h7.32c0-1.36,.07-2.62-.02-3.87-.13-1.92-1.7-3.37-3.57-3.42-1.82-.05-3.48,1.26-3.7,3.13-.16,1.35-.03,2.73-.03,4.16Zm148.29,.05c0-1.44,.09-2.74-.02-4.02-.15-1.8-1.59-3.15-3.31-3.3-1.73-.16-3.55,.94-3.83,2.65-.24,1.51-.05,3.09-.05,4.68h7.21Zm-35.06,51.81h8.05c-1.37-2.07-2.64-3.99-4.02-6.06-1.37,2.06-2.66,4-4.04,6.06Zm-21.94,0h8.05c-1.38-2.07-2.65-3.99-4.02-6.05-1.37,2.06-2.64,3.98-4.03,6.05Zm-57.78,.04c-1.39-2.1-2.66-4.01-4.05-6.1-1.37,2.08-2.65,4-4.03,6.1h8.08Zm21.95,0c-1.4-2.1-2.68-4.02-4.06-6.09-1.4,2.12-2.67,4.03-4.03,6.09h8.09Zm21.93-.03c-1.37-2.07-2.66-4-4.03-6.07-1.37,2.08-2.64,3.99-4.01,6.07h8.04Zm-11.04-8.98h-7.92c1.36,2.05,2.61,3.93,3.96,5.96,1.35-2.03,2.6-3.91,3.96-5.96Zm39.94,5.97c1.37-2.07,2.62-3.97,3.95-5.98h-7.91c1.36,2.06,2.61,3.93,3.96,5.98Zm-69.83-6.01c1.37,2.07,2.63,3.97,3.99,6.01,1.36-2.05,2.62-3.96,3.98-6.01h-7.96Zm47.88,6.01c1.38-2.08,2.62-3.97,3.95-5.98h-7.91c1.36,2.05,2.6,3.93,3.96,5.98Z"/>
  <path class="cls-1" d="M37.01,75.91H7.54v-22.1h29.47v22.1Z"/>
  <path class="cls-1" d="M14.96,83.5h7.2v48.13h-7.2v-48.13Z"/>
  <path class="cls-1" d="M77.91,58.01c-1.21-1.27-2.27-2.32-3.26-3.44-.25-.29-.4-.77-.4-1.16-.03-4.13-.04-8.27,0-12.4,.02-2.27,1.64-3.88,3.76-3.84,2.06,.04,3.59,1.64,3.6,3.88,.02,4.09,.02,8.19,0,12.28,0,.4-.11,.89-.35,1.18-1.01,1.14-2.1,2.22-3.34,3.5Z"/>
  <path class="cls-1" d="M59.45,44.63h7.23v7.3h-7.23v-7.3Z"/>
  <path class="cls-1" d="M89.15,51.93v-7.29h7.23v7.29h-7.23Z"/>
  <path class="cls-1" d="M22.35,44.46c0-1.44-.13-2.82,.03-4.16,.22-1.87,1.88-3.18,3.7-3.13,1.87,.05,3.44,1.51,3.57,3.42,.09,1.25,.02,2.51,.02,3.87h-7.32Z"/>
  <path class="cls-1" d="M170.63,44.51h-7.21c0-1.59-.19-3.17,.05-4.68,.27-1.71,2.1-2.81,3.83-2.65,1.73,.16,3.16,1.51,3.31,3.3,.11,1.28,.02,2.58,.02,4.02Z"/>
  <path class="cls-1" d="M135.57,96.32c1.37-2.06,2.66-4,4.04-6.06,1.37,2.07,2.64,3.99,4.02,6.06h-8.05Z"/>
  <path class="cls-1" d="M113.62,96.32c1.38-2.08,2.66-3.99,4.03-6.05,1.37,2.06,2.64,3.98,4.02,6.05h-8.05Z"/>
  <path class="cls-1" d="M55.84,96.36h-8.08c1.39-2.1,2.66-4.02,4.03-6.1,1.39,2.09,2.66,4.01,4.05,6.1Z"/>
  <path class="cls-1" d="M77.8,96.35h-8.09c1.36-2.06,2.63-3.97,4.03-6.09,1.38,2.07,2.66,4,4.06,6.09Z"/>
  <path class="cls-1" d="M99.72,96.32h-8.04c1.37-2.08,2.64-3.99,4.01-6.07,1.37,2.06,2.66,4,4.03,6.07Z"/>
  <path class="cls-1" d="M88.68,87.34c-1.36,2.05-2.61,3.93-3.96,5.96-1.35-2.03-2.6-3.91-3.96-5.96h7.92Z"/>
  <path class="cls-1" d="M128.62,93.31c-1.36-2.05-2.6-3.92-3.96-5.98h7.91c-1.33,2.01-2.58,3.91-3.95,5.98Z"/>
  <path class="cls-1" d="M58.79,87.29h7.96c-1.35,2.05-2.62,3.95-3.98,6.01-1.35-2.04-2.61-3.94-3.99-6.01Z"/>
  <path class="cls-1" d="M106.68,93.31c-1.36-2.05-2.6-3.93-3.96-5.98h7.91c-1.33,2.01-2.57,3.9-3.95,5.98Z"/>
  <path d="M96.59,111.27c13.43,0,26.86,0,40.29,0,1.99,0,3.31,.86,3.88,2.48,.8,2.29-.69,4.67-3.12,4.94-.27,.03-.55,.02-.83,.02-26.9,0-53.8,0-80.7,0-3.04,0-4.89-2.43-3.9-5.08,.57-1.51,1.86-2.35,3.73-2.35,5.36-.02,10.71-.01,16.07-.01,8.19,0,16.38,0,24.58,0Z"/>
  <path d="M170.65,61.11c1.18,0,2.36-.02,3.54,0,2.28,.05,3.87,1.57,3.89,3.72,.02,2.08-1.5,3.66-3.74,3.73-2.47,.07-4.95,.07-7.43,0-2.14-.06-3.66-1.67-3.67-3.7-.01-2.01,1.51-3.62,3.64-3.73,1.25-.07,2.51-.01,3.77-.01h0Z"/>
</svg>